<?xml version="1.0" standalone="no"?>
<!DOCTYPE svg PUBLIC "-//W3C//DTD SVG 20010904//EN"
 "http://www.w3.org/TR/2001/REC-SVG-20010904/DTD/svg10.dtd">
<svg version="1.0" xmlns="http://www.w3.org/2000/svg"
 width="1335.000000pt" height="1335.000000pt" viewBox="0 0 1335.000000 1335.000000"
 preserveAspectRatio="xMidYMid meet">
<metadata>
Created by potrace 1.11, written by Peter Selinger 2001-2013
</metadata>
<g transform="translate(0.000000,1335.000000) scale(0.100000,-0.100000)"
fill="#000000" stroke="none">
<path d="M6300 9660 c-69 -15 -146 -57 -185 -103 -54 -63 -65 -115 -65 -309
l0 -168 -130 0 -131 0 3 -67 3 -68 128 -3 127 -3 0 -680 0 -680 73 3 72 3 3
677 2 677 148 3 147 3 3 68 3 67 -151 0 -150 0 0 174 c0 163 1 175 23 207 40
60 76 71 205 66 l112 -5 0 63 c0 57 -2 63 -22 68 -47 12 -175 16 -218 7z"/>
<path d="M3860 9475 l0 -166 73 3 72 3 3 163 2 162 -75 0 -75 0 0 -165z"/>
<path d="M9770 8610 l0 -1031 73 3 72 3 6 485 c4 409 8 493 21 539 60 195 201
329 383 362 73 14 193 6 260 -17 71 -25 165 -120 196 -199 24 -60 24 -61 29
-615 l5 -555 73 -3 72 -3 0 523 c-1 396 -4 541 -14 598 -49 267 -203 397 -486
408 -139 5 -221 -11 -323 -65 -67 -35 -166 -121 -200 -173 -15 -23 -16 1 -16
373 l-1 397 -75 0 -75 0 0 -1030z"/>
<path d="M2712 9090 c-112 -30 -187 -74 -277 -165 -86 -86 -136 -168 -173
-285 -38 -120 -46 -181 -45 -335 1 -126 5 -165 26 -248 90 -344 332 -524 677
-504 127 8 202 27 295 75 155 81 268 250 310 460 l7 32 -75 0 -74 0 -17 -62
c-73 -264 -292 -407 -566 -368 -243 34 -411 241 -437 538 l-6 72 592 0 591 0
0 79 c0 358 -186 637 -475 711 -103 26 -252 26 -353 0z m280 -121 c131 -28
264 -134 324 -259 31 -63 56 -152 68 -237 l6 -43 -510 0 -510 0 0 28 c0 53 39
182 76 253 104 198 328 304 546 258z"/>
<path d="M4896 9094 c-100 -24 -185 -71 -256 -143 -37 -36 -74 -77 -83 -91
-15 -24 -16 -19 -16 98 l-1 123 -72 -3 -73 -3 0 -745 0 -745 73 -3 72 -3 0
434 c0 506 6 562 71 695 92 189 261 284 476 269 196 -14 317 -130 343 -329 5
-40 10 -297 10 -571 l0 -498 73 3 72 3 0 535 c0 478 -2 543 -18 612 -46 195
-165 319 -349 363 -79 18 -244 18 -322 -1z"/>
<path d="M7115 9093 c-230 -49 -362 -199 -391 -445 l-6 -58 74 0 75 0 7 55
c27 228 203 351 478 331 147 -10 240 -54 296 -139 25 -38 27 -47 27 -153 0
-98 -3 -116 -21 -140 -50 -67 -108 -83 -385 -109 -217 -19 -297 -36 -396 -85
-93 -46 -150 -103 -192 -190 -24 -51 -26 -66 -26 -185 0 -122 2 -134 29 -192
74 -161 257 -244 506 -230 58 3 130 13 160 23 118 35 236 113 293 192 l32 44
8 -52 c17 -121 75 -172 200 -173 112 -1 117 2 117 78 l0 63 -62 -5 c-112 -8
-102 -57 -108 554 -5 521 -6 529 -28 585 -48 118 -157 201 -307 233 -90 19
-288 18 -380 -2z m565 -835 c-1 -243 -58 -379 -204 -482 -80 -56 -126 -73
-235 -86 -168 -21 -313 17 -385 101 -81 95 -81 283 1 378 71 84 178 116 488
146 179 17 258 31 295 51 14 7 28 13 33 14 4 0 7 -55 7 -122z"/>
<path d="M8654 9090 c-232 -60 -390 -225 -471 -487 -25 -81 -27 -101 -27 -263
0 -157 3 -185 27 -272 84 -316 297 -498 601 -515 329 -19 589 163 666 463 11
43 20 88 20 101 0 23 -2 24 -72 21 l-71 -3 -13 -61 c-52 -256 -293 -422 -558
-385 -217 30 -361 164 -428 396 -20 70 -23 102 -23 250 0 161 2 174 28 250 95
270 298 413 556 391 185 -15 318 -95 381 -228 16 -33 31 -82 35 -109 l7 -49
75 0 74 0 -6 48 c-42 296 -277 473 -627 471 -67 0 -128 -7 -174 -19z"/>
<path d="M3860 8330 l0 -751 73 3 72 3 3 748 2 747 -75 0 -75 0 0 -750z"/>
<path d="M2160 6905 l0 -65 4510 0 4510 0 0 65 0 65 -4510 0 -4510 0 0 -65z"/>
<path d="M4766 6280 c-152 -24 -329 -94 -455 -179 -245 -167 -417 -447 -488
-796 -26 -128 -26 -482 0 -610 67 -332 220 -594 446 -766 93 -70 267 -154 386
-185 134 -35 390 -45 535 -20 493 85 835 450 931 995 27 151 29 391 4 541 -85
517 -390 878 -844 997 -82 22 -122 26 -276 29 -99 1 -207 -1 -239 -6z m456
-149 c174 -46 311 -124 439 -251 212 -210 329 -522 329 -880 0 -606 -331
-1057 -842 -1146 -122 -21 -320 -14 -433 15 -324 85 -580 335 -693 677 -120
361 -84 805 90 1114 148 262 407 445 693 490 99 15 328 5 417 -19z"/>
<path d="M2600 4995 l0 -1235 75 0 75 0 0 1235 0 1235 -75 0 -75 0 0 -1235z"/>
<path d="M6780 6165 l0 -65 435 0 435 0 0 -1170 0 -1170 75 0 75 0 0 1170 0
1170 435 0 435 0 0 65 0 65 -945 0 -945 0 0 -65z"/>
<path d="M9537 5016 c-269 -667 -491 -1223 -494 -1235 -5 -20 -2 -21 70 -21
48 0 78 4 84 13 6 6 211 525 458 1152 246 627 451 1144 455 1148 4 5 17 -15
28 -45 60 -159 844 -2203 856 -2233 l15 -36 76 3 c41 2 76 7 77 11 0 5 -217
559 -483 1233 l-484 1224 -85 0 -86 0 -487 -1214z"/>
</g>
</svg>
