<svg xmlns="http://www.w3.org/2000/svg" viewBox="0 0 405.54 267.99"><defs><style>.cls-1{stroke:#000;stroke-miterlimit:10;stroke-width:1.8px;}</style></defs><title>Element 1</title><g id="Ebene_2" data-name="Ebene 2"><g id="Ebene_1-2" data-name="Ebene 1"><path d="M19.55,154.37h6.84v111H19.55Z"/><path d="M179,209.86a71.19,71.19,0,0,1-3.58,22.77,54.52,54.52,0,0,1-10.34,18.5,48.07,48.07,0,0,1-16.55,12.36,52.67,52.67,0,0,1-22.23,4.5,53.13,53.13,0,0,1-22.3-4.5A48,48,0,0,1,87.4,251.13a54.66,54.66,0,0,1-10.33-18.5,74.2,74.2,0,0,1,0-45.54,54.66,54.66,0,0,1,10.33-18.5A48,48,0,0,1,104,156.23a53.13,53.13,0,0,1,22.3-4.51,52.67,52.67,0,0,1,22.23,4.51,48.07,48.07,0,0,1,16.55,12.36,54.52,54.52,0,0,1,10.34,18.5A71.19,71.19,0,0,1,179,209.86Zm-98.71,0a64.26,64.26,0,0,0,3.11,20.21,49.68,49.68,0,0,0,9,16.55,42.9,42.9,0,0,0,33.89,15.47,43,43,0,0,0,19.35-4.2,43.84,43.84,0,0,0,14.38-11.27,49.7,49.7,0,0,0,9-16.55,67.22,67.22,0,0,0,0-40.42,49.7,49.7,0,0,0-9-16.55,43.84,43.84,0,0,0-14.38-11.27,43,43,0,0,0-19.35-4.2A42.9,42.9,0,0,0,92.45,173.1a49.68,49.68,0,0,0-9,16.55A64.26,64.26,0,0,0,80.33,209.86Z"/><path d="M207.64,160.27v-5.9h85v5.9H253.49V265.35h-6.84V160.27Z"/><path d="M316.29,265.35H309l44.61-111h7.46l43.84,111h-7.31l-39.95-104.3h-.31Z"/><path class="cls-1" d="M8,60.7v.76A38.73,38.73,0,0,0,9.49,72.41,28,28,0,0,0,14,81.57a21.5,21.5,0,0,0,7.52,6.23,23,23,0,0,0,10.53,2.29q9.82,0,15.56-5.15t7.91-14.32h4.84Q58.22,82.08,51,88.18T32,94.29a28.79,28.79,0,0,1-12.66-2.61,25.78,25.78,0,0,1-9-7.12,30.28,30.28,0,0,1-5.4-10.69,47.67,47.67,0,0,1-1.79-13.3A46.62,46.62,0,0,1,5,47.4,33.27,33.27,0,0,1,10.5,36.33a27.45,27.45,0,0,1,9.23-7.63,28,28,0,0,1,13-2.86,27.75,27.75,0,0,1,12.15,2.54,25.41,25.41,0,0,1,8.84,6.94A30.68,30.68,0,0,1,59.17,45.5,40.6,40.6,0,0,1,61,57.9c0,.43,0,.91-.07,1.46s-.06,1-.06,1.34Zm48.09-4.2a39.06,39.06,0,0,0-1.78-10.11A25,25,0,0,0,49.74,38a22.46,22.46,0,0,0-7.27-5.79A21.37,21.37,0,0,0,32.71,30a23,23,0,0,0-10.34,2.22,23.45,23.45,0,0,0-7.52,5.86,25.85,25.85,0,0,0-4.72,8.46,39.17,39.17,0,0,0-2,9.92Z"/><path class="cls-1" d="M77.17,15V1.92H82V15Zm0,77.74V27.36H82v65.4Z"/><path class="cls-1" d="M101.22,27.36h4.84v14h.25a21,21,0,0,1,3.63-6.55,24,24,0,0,1,12.27-8,28.1,28.1,0,0,1,7.51-1,29.58,29.58,0,0,1,9.74,1.4A19,19,0,0,1,146,30.93a17.9,17.9,0,0,1,4,5.15,23.88,23.88,0,0,1,2.09,5.79,34.1,34.1,0,0,1,.77,5.66c.08,1.83.13,3.42.13,4.77V92.76h-4.84V51.41c0-1.61-.13-3.64-.38-6.11a18.73,18.73,0,0,0-2.23-7.06,16.32,16.32,0,0,0-5.6-5.79Q136.21,30,129.59,30a23.13,23.13,0,0,0-9.92,2,21.7,21.7,0,0,0-7.38,5.66,24.92,24.92,0,0,0-4.64,8.66,36,36,0,0,0-1.59,11V92.76h-4.84Z"/><path class="cls-1" d="M164,31.56v-4.2h11.7V13.88A14,14,0,0,1,176.8,8a10.61,10.61,0,0,1,3.11-4,13.93,13.93,0,0,1,4.59-2.29A19.5,19.5,0,0,1,190,.9a33.81,33.81,0,0,1,5.73.64V5.73A34.68,34.68,0,0,0,190,5.1a11.91,11.91,0,0,0-6.81,1.84q-2.73,1.84-2.73,7.32v13.1H194.1v4.2H180.49v61.2h-4.84V31.56Z"/><path class="cls-1" d="M248.94,79.79h-.26a20.11,20.11,0,0,1-3.3,5.53A23.57,23.57,0,0,1,240.1,90,26.05,26.05,0,0,1,233,93.14a30.68,30.68,0,0,1-8.65,1.15q-10.42,0-16.16-4.52T202.5,75.84a16.35,16.35,0,0,1,8.08-15.08,25,25,0,0,1,7.76-3,78.26,78.26,0,0,1,8.21-1.27l7.5-.64a44.14,44.14,0,0,0,8.21-1.2,10.58,10.58,0,0,0,4.52-2.29,6.56,6.56,0,0,0,1.9-3.76,34.86,34.86,0,0,0,.39-5.72,12.11,12.11,0,0,0-1-5,11.23,11.23,0,0,0-3.18-4.07,16,16,0,0,0-5.6-2.8,30.26,30.26,0,0,0-8.4-1q-8.77,0-14.18,4.32t-5.92,13.11h-4.84q.51-10.81,6.94-16.22t18.26-5.41q11.82,0,17.24,4.64a15.27,15.27,0,0,1,5.4,12.15V80.68c0,.93,0,1.86.07,2.79a9.42,9.42,0,0,0,.44,2.55,3.8,3.8,0,0,0,1.28,1.84,4,4,0,0,0,2.54.7,22.35,22.35,0,0,0,3.56-.38v4.07a15.21,15.21,0,0,1-3.94.51,11.68,11.68,0,0,1-4.65-.76,6.1,6.1,0,0,1-2.6-2,7.34,7.34,0,0,1-1.21-3,19.86,19.86,0,0,1-.32-3.75Zm0-24.18a9.2,9.2,0,0,1-5.41,2.93,66.31,66.31,0,0,1-8.08,1.14l-8.14.77c-2.38.25-4.75.61-7.13,1.08a20.65,20.65,0,0,0-6.42,2.35,13.15,13.15,0,0,0-4.65,4.52,14,14,0,0,0-1.78,7.44q0,7.26,4.58,10.75t12.6,3.5q8.27,0,13.11-3A23,23,0,0,0,245,80.23a21.16,21.16,0,0,0,3.25-7.51,32.77,32.77,0,0,0,.7-4.9Z"/><path class="cls-1" d="M322.23,47.59A19,19,0,0,0,320,40a17,17,0,0,0-4.77-5.47,21.59,21.59,0,0,0-6.81-3.31A29.42,29.42,0,0,0,300.09,30a22.81,22.81,0,0,0-10.82,2.48,23.85,23.85,0,0,0-7.89,6.61,30,30,0,0,0-4.83,9.42,36.29,36.29,0,0,0-1.66,10.88,46.18,46.18,0,0,0,1.53,12.21,27.78,27.78,0,0,0,4.71,9.74A22,22,0,0,0,289,87.8a25,25,0,0,0,11.07,2.29,22.89,22.89,0,0,0,8.46-1.53,22.44,22.44,0,0,0,6.87-4.19,21.9,21.9,0,0,0,4.9-6.43,26.06,26.06,0,0,0,2.54-8.21h4.84a30.75,30.75,0,0,1-3.18,10.44,25.6,25.6,0,0,1-6.11,7.69,26.62,26.62,0,0,1-8.4,4.78,32.6,32.6,0,0,1-23.6-1.21,26.21,26.21,0,0,1-9.29-7.7,32.47,32.47,0,0,1-5.34-11.13,49.65,49.65,0,0,1-1.72-13.17,42.13,42.13,0,0,1,2-13,32,32,0,0,1,5.79-10.69,27.51,27.51,0,0,1,9.42-7.25,29.49,29.49,0,0,1,12.85-2.67,36.06,36.06,0,0,1,10,1.33,26,26,0,0,1,8.27,4A20.86,20.86,0,0,1,324.26,38a24.23,24.23,0,0,1,2.8,9.6Z"/><path class="cls-1" d="M347.67,1.92V41.36h.26a20.8,20.8,0,0,1,3.62-6.55,24,24,0,0,1,12.28-8,28,28,0,0,1,7.51-1,29.47,29.47,0,0,1,9.73,1.4,18.9,18.9,0,0,1,6.55,3.69,17.56,17.56,0,0,1,4,5.15,23.51,23.51,0,0,1,2.1,5.79,34.1,34.1,0,0,1,.77,5.66q.12,2.74.12,4.77V92.76h-4.83V51.41c0-1.61-.13-3.64-.38-6.11a18.73,18.73,0,0,0-2.23-7.06,16.32,16.32,0,0,0-5.6-5.79Q377.83,30,371.21,30a23.13,23.13,0,0,0-9.92,2,21.51,21.51,0,0,0-7.38,5.66,24.94,24.94,0,0,0-4.65,8.66,36.32,36.32,0,0,0-1.59,11V92.76h-4.83V1.92Z"/><rect y="121.22" width="405.54" height="5.89"/></g></g></svg>